<svg xmlns="http://www.w3.org/2000/svg" width="168.167" height="55.009" viewBox="0 0 168.167 55.009">
  <g id="Group_711" data-name="Group 711" transform="translate(0)">
    <path id="Path_1067" data-name="Path 1067" d="M1185.61,868.177a7.434,7.434,0,0,1-7.432,7.434h-153.3a7.435,7.435,0,0,1-7.434-7.434V828.036a7.435,7.435,0,0,1,7.434-7.434h153.3a7.433,7.433,0,0,1,7.432,7.434Z" transform="translate(-1017.443 -820.602)"/>
    <g id="Group_707" data-name="Group 707" transform="translate(11.281 8.552)">
      <path id="Path_1068" data-name="Path 1068" d="M1085.012,893.6a27.249,27.249,0,0,1-2.462,4.6c-1.6,2.435-3.854,5.467-6.646,5.493-2.482.023-3.12-1.615-6.488-1.6s-4.071,1.625-6.554,1.6c-2.793-.026-4.929-2.764-6.528-5.2-4.473-6.808-4.94-14.8-2.182-19.045a9.9,9.9,0,0,1,7.96-4.785c2.96,0,4.821,1.624,7.269,1.624,2.374,0,3.821-1.626,7.244-1.626a9.66,9.66,0,0,1,7.282,3.844A8.332,8.332,0,0,0,1085.012,893.6Z" transform="translate(-1052.439 -865.788)" fill="#fff"/>
      <g id="Group_706" data-name="Group 706" transform="translate(15.656)">
        <path id="Path_1069" data-name="Path 1069" d="M1106.942,853.286a8.309,8.309,0,0,0,1.845-6.154,8.977,8.977,0,0,0-5.8,3.117,7.713,7.713,0,0,0-1.894,6A7.578,7.578,0,0,0,1106.942,853.286Z" transform="translate(-1101.01 -847.132)" fill="#fff"/>
      </g>
    </g>
    <g id="Group_710" data-name="Group 710" transform="translate(51.072 8.633)">
      <g id="Group_708" data-name="Group 708" transform="translate(0 13.178)">
        <path id="Path_1070" data-name="Path 1070" d="M1182.291,889.2l-6.406,18.858h2.934l1.913-5.79h6.2l1.967,5.79h3.015l-6.434-18.858Zm1.52,3.1c.216.842.45,1.716.75,2.661l1.726,5h-4.914l1.7-5.033C1183.335,894.109,1183.581,893.228,1183.811,892.3Z" transform="translate(-1175.884 -888.897)" fill="#fff"/>
        <path id="Path_1071" data-name="Path 1071" d="M1236.075,904.363a5.338,5.338,0,0,0-4.536,2.176l-.114-1.876h-2.609l.016.24c.077,1.168.109,2.455.109,4.3V923.74h2.854v-6.783a5.01,5.01,0,0,0,3.9,1.676,5.882,5.882,0,0,0,4.323-1.838,7.8,7.8,0,0,0,1.909-5.488,7.591,7.591,0,0,0-1.657-5.011A5.429,5.429,0,0,0,1236.075,904.363Zm-.711,2.362c2.543,0,3.682,2.356,3.682,4.691,0,3.011-1.452,4.882-3.79,4.882a3.459,3.459,0,0,1-3.361-2.648,3.636,3.636,0,0,1-.1-.923v-2.294a4.286,4.286,0,0,1,.09-.7c.014-.078.03-.156.041-.232A3.613,3.613,0,0,1,1235.365,906.725Z" transform="translate(-1211.754 -899.174)" fill="#fff"/>
        <path id="Path_1072" data-name="Path 1072" d="M1281.657,904.363a5.341,5.341,0,0,0-4.536,2.176l-.114-1.876H1274.4l.014.24c.078,1.17.11,2.455.11,4.3V923.74h2.853v-6.783a5.008,5.008,0,0,0,3.9,1.676,5.888,5.888,0,0,0,4.325-1.838,7.8,7.8,0,0,0,1.908-5.488,7.591,7.591,0,0,0-1.658-5.011A5.427,5.427,0,0,0,1281.657,904.363Zm-.71,2.362c2.542,0,3.681,2.356,3.681,4.691,0,3.011-1.453,4.882-3.79,4.882a3.459,3.459,0,0,1-3.361-2.648,3.639,3.639,0,0,1-.1-.923v-2.294a4.226,4.226,0,0,1,.091-.707c.014-.077.028-.154.041-.229A3.611,3.611,0,0,1,1280.947,906.725Z" transform="translate(-1242.643 -899.174)" fill="#fff"/>
        <path id="Path_1073" data-name="Path 1073" d="M1339.74,896.556c-2.663-1.031-3.516-1.842-3.516-3.34,0-1.262,1-2.534,3.243-2.534a6.483,6.483,0,0,1,3.349.841l.242.149.805-2.381-.16-.093a8.267,8.267,0,0,0-4.155-.932c-3.638,0-6.18,2.148-6.18,5.223,0,2.48,1.591,4.213,5.008,5.455,2.422.905,3.323,1.832,3.323,3.421,0,1.8-1.391,2.915-3.627,2.915a7.808,7.808,0,0,1-4.112-1.166l-.248-.159-.766,2.436.141.093a9.772,9.772,0,0,0,4.822,1.239c4.9,0,6.642-2.99,6.642-5.55C1344.552,899.533,1343.158,897.9,1339.74,896.556Z" transform="translate(-1282.319 -888.265)" fill="#fff"/>
        <path id="Path_1074" data-name="Path 1074" d="M1374.694,895.215l-2.8.879v2.37h-2.049v2.28h2.049v6.985a5.339,5.339,0,0,0,.988,3.62,3.657,3.657,0,0,0,2.76,1.084,6.725,6.725,0,0,0,2.206-.34l.16-.057-.137-2.284-.273.084a4.3,4.3,0,0,1-1.327.153c-1.105,0-1.577-.7-1.577-2.342v-6.9h3.442v-2.28h-3.442Z" transform="translate(-1307.325 -892.975)" fill="#fff"/>
        <path id="Path_1075" data-name="Path 1075" d="M1403.244,904.363c-3.992,0-6.78,2.98-6.78,7.244,0,4.137,2.7,7.025,6.561,7.025h.027c3.266,0,6.78-2.275,6.78-7.271a7.21,7.21,0,0,0-1.818-5.047A6.349,6.349,0,0,0,1403.244,904.363Zm-.082,2.253c2.567,0,3.735,2.5,3.735,4.828,0,2.86-1.595,4.936-3.79,4.936h-.028c-2.164,0-3.735-2.041-3.735-4.854C1399.345,909.082,1400.525,906.615,1403.161,906.615Z" transform="translate(-1325.362 -899.174)" fill="#fff"/>
        <path id="Path_1076" data-name="Path 1076" d="M1450.115,904.5l-.171-.043a2.751,2.751,0,0,0-.709-.089,4.069,4.069,0,0,0-3.577,2.3l-.084-2h-2.56l.017.24c.076,1.129.108,2.4.108,4.109l-.026,9.321h2.853v-7.272a7.35,7.35,0,0,1,.079-1.106,3.153,3.153,0,0,1,3-2.875,7.285,7.285,0,0,1,.766.048l.305.031Z" transform="translate(-1356.907 -899.174)" fill="#fff"/>
        <path id="Path_1077" data-name="Path 1077" d="M1471.384,904.279c-3.8,0-6.451,3.035-6.451,7.38,0,4.185,2.639,6.889,6.724,6.889a10.943,10.943,0,0,0,4.517-.866l.172-.077-.548-2.126-.238.1a8.839,8.839,0,0,1-3.574.639,3.966,3.966,0,0,1-4.274-4.137l9.209.028.037-.182a6.339,6.339,0,0,0,.086-1.191C1477.044,907.755,1475.562,904.279,1471.384,904.279Zm-.19,2.171a2.815,2.815,0,0,1,2.094.8,4.061,4.061,0,0,1,.983,2.656h-6.507C1468.029,908.257,1469.059,906.45,1471.194,906.45Z" transform="translate(-1371.761 -899.117)" fill="#fff"/>
      </g>
      <g id="Group_709" data-name="Group 709">
        <path id="Path_1078" data-name="Path 1078" d="M1175.884,848.843a20.794,20.794,0,0,1,2.737-.185,6.107,6.107,0,0,1,4.017,1.1,3.906,3.906,0,0,1,1.413,3.218,4.518,4.518,0,0,1-1.427,3.469,6.621,6.621,0,0,1-4.4,1.285,19.835,19.835,0,0,1-2.34-.106Zm1.295,7.906a9.224,9.224,0,0,0,1.3.053c2.737.013,4.223-1.377,4.223-3.787.015-2.132-1.31-3.443-4.017-3.443a8.125,8.125,0,0,0-1.5.119Z" transform="translate(-1175.884 -848.247)" fill="#fff"/>
        <path id="Path_1079" data-name="Path 1079" d="M1208.28,862.917a3.217,3.217,0,0,1-3.414-3.3,3.306,3.306,0,0,1,3.531-3.4,3.192,3.192,0,0,1,3.428,3.284,3.318,3.318,0,0,1-3.531,3.417Zm.044-.874a2.281,2.281,0,0,0,2.163-2.5,2.178,2.178,0,1,0-2.178,2.5Z" transform="translate(-1195.524 -853.369)" fill="#fff"/>
        <path id="Path_1080" data-name="Path 1080" d="M1230.027,856.668l.956,3.245c.191.715.383,1.39.515,2.052h.044c.162-.649.4-1.337.633-2.039l1.162-3.258h1.089l1.1,3.2c.264.755.471,1.443.633,2.093h.044a17.741,17.741,0,0,1,.545-2.079l1.015-3.218h1.281l-2.3,6.409h-1.177l-1.089-3.059a21.009,21.009,0,0,1-.633-2.119h-.029a17.646,17.646,0,0,1-.648,2.132l-1.147,3.046h-1.177l-2.149-6.409Z" transform="translate(-1211.677 -853.675)" fill="#fff"/>
        <path id="Path_1081" data-name="Path 1081" d="M1264.689,858.1c0-.675-.015-1.2-.059-1.735h1.148l.073,1.047h.03a2.7,2.7,0,0,1,2.354-1.192,2.438,2.438,0,0,1,2.516,2.728v3.827h-1.294v-3.695c0-1.033-.428-1.906-1.649-1.906a1.847,1.847,0,0,0-1.736,1.192,1.57,1.57,0,0,0-.089.543v3.866h-1.294Z" transform="translate(-1236.024 -853.369)" fill="#fff"/>
        <path id="Path_1082" data-name="Path 1082" d="M1290.148,847.384h1.295v9.4h-1.295Z" transform="translate(-1253.316 -847.384)" fill="#fff"/>
        <path id="Path_1083" data-name="Path 1083" d="M1302.646,862.917a3.217,3.217,0,0,1-3.413-3.3,3.306,3.306,0,0,1,3.531-3.4,3.192,3.192,0,0,1,3.428,3.284,3.318,3.318,0,0,1-3.531,3.417Zm.044-.874a2.281,2.281,0,0,0,2.164-2.5,2.177,2.177,0,1,0-2.178,2.5Z" transform="translate(-1259.473 -853.369)" fill="#fff"/>
        <path id="Path_1084" data-name="Path 1084" d="M1329.735,861.235a9.7,9.7,0,0,0,.1,1.536h-1.163l-.117-.807h-.044a2.737,2.737,0,0,1-2.178.954,1.941,1.941,0,0,1-2.178-1.841c0-1.549,1.53-2.4,4.281-2.384v-.132c0-.53-.161-1.5-1.618-1.483a3.715,3.715,0,0,0-1.868.476l-.295-.781a5.014,5.014,0,0,1,2.355-.556c2.192,0,2.721,1.337,2.721,2.622Zm-1.265-1.735c-1.413-.026-3.017.2-3.017,1.443a1.083,1.083,0,0,0,1.207,1.113,1.8,1.8,0,0,0,1.75-1.073,1.067,1.067,0,0,0,.06-.371Z" transform="translate(-1276.364 -853.369)" fill="#fff"/>
        <path id="Path_1085" data-name="Path 1085" d="M1352.963,847.384v7.746c0,.569.016,1.218.059,1.655h-1.162l-.059-1.112h-.03a2.665,2.665,0,0,1-2.413,1.258,3.056,3.056,0,0,1-3.061-3.258,3.2,3.2,0,0,1,3.193-3.443,2.45,2.45,0,0,1,2.149.967h.029v-3.814Zm-1.295,5.6a1.928,1.928,0,0,0-.059-.5,1.871,1.871,0,0,0-1.868-1.338,2.193,2.193,0,0,0-2.134,2.463,2.126,2.126,0,0,0,2.1,2.383,1.926,1.926,0,0,0,1.9-1.39,1.8,1.8,0,0,0,.059-.5Z" transform="translate(-1291.366 -847.384)" fill="#fff"/>
        <path id="Path_1086" data-name="Path 1086" d="M1385.135,862.917a3.217,3.217,0,0,1-3.413-3.3,3.307,3.307,0,0,1,3.531-3.4,3.191,3.191,0,0,1,3.429,3.284,3.318,3.318,0,0,1-3.531,3.417Zm.044-.874a2.28,2.28,0,0,0,2.163-2.5,2.177,2.177,0,1,0-2.178,2.5Z" transform="translate(-1315.372 -853.369)" fill="#fff"/>
        <path id="Path_1087" data-name="Path 1087" d="M1408.259,858.1c0-.675-.015-1.2-.059-1.735h1.148l.074,1.047h.029a2.7,2.7,0,0,1,2.354-1.192,2.438,2.438,0,0,1,2.516,2.728v3.827h-1.3v-3.695c0-1.033-.426-1.906-1.648-1.906a1.849,1.849,0,0,0-1.736,1.192,1.576,1.576,0,0,0-.088.543v3.866h-1.295Z" transform="translate(-1333.315 -853.369)" fill="#fff"/>
        <path id="Path_1088" data-name="Path 1088" d="M1443.255,851.9v1.536h1.853v.887h-1.853v3.456c0,.794.251,1.245.972,1.245a2.681,2.681,0,0,0,.75-.079l.059.887a3.9,3.9,0,0,1-1.148.159,1.962,1.962,0,0,1-1.4-.49,2.328,2.328,0,0,1-.5-1.682v-3.5h-1.1v-.887h1.1v-1.178Z" transform="translate(-1355.465 -850.447)" fill="#fff"/>
        <path id="Path_1089" data-name="Path 1089" d="M1458.507,847.384h1.295v4h.03a2.2,2.2,0,0,1,.927-.821,2.731,2.731,0,0,1,1.324-.331,2.436,2.436,0,0,1,2.486,2.741v3.814h-1.295V853.1c0-1.046-.427-1.907-1.648-1.907a1.861,1.861,0,0,0-1.736,1.166,1.277,1.277,0,0,0-.089.556v3.866h-1.295Z" transform="translate(-1367.406 -847.384)" fill="#fff"/>
        <path id="Path_1090" data-name="Path 1090" d="M1483.5,859.737a2.171,2.171,0,0,0,2.428,2.225,5.4,5.4,0,0,0,1.972-.318l.236.821a6.367,6.367,0,0,1-2.384.411c-2.178,0-3.5-1.311-3.5-3.231a3.263,3.263,0,0,1,3.354-3.47,2.805,2.805,0,0,1,2.928,3.02,2.721,2.721,0,0,1-.043.556Zm3.782-.834a1.719,1.719,0,0,0-1.781-1.894,2.016,2.016,0,0,0-1.986,1.894Z" transform="translate(-1383.493 -853.341)" fill="#fff"/>
      </g>
    </g>
  </g>
</svg>
