<svg xmlns="http://www.w3.org/2000/svg" xmlns:xlink="http://www.w3.org/1999/xlink" width="168.167" height="55.01" viewBox="0 0 168.167 55.01">
  <defs>
    <clipPath id="clip-path">
      <path id="Path_1096" data-name="Path 1096" d="M1106.288,606.438l-7.583-4.378-14.627-8.445c-.812-.469-1.621-.185-1.621.795v34.408c0,.734.578,1.051,1.284.644l14.964-8.64,7.582-4.378,7.289-4.208c.855-.494.773-1.171.052-1.56S1106.288,606.438,1106.288,606.438Z" transform="translate(-1082.458 -593.394)" fill="none"/>
    </clipPath>
    <linearGradient id="linear-gradient" x1="0.5" x2="0.5" y2="1" gradientUnits="objectBoundingBox">
      <stop offset="0" stop-color="#0067a2"/>
      <stop offset="0.403" stop-color="#3d91a8"/>
      <stop offset="0.805" stop-color="#74b7ae"/>
      <stop offset="1" stop-color="#8ac6b1"/>
    </linearGradient>
    <linearGradient id="linear-gradient-2" y1="0.5" x2="1" y2="0.5" gradientUnits="objectBoundingBox">
      <stop offset="0" stop-color="#50b09b"/>
      <stop offset="1" stop-color="#e9e486"/>
    </linearGradient>
    <linearGradient id="linear-gradient-3" x1="0.5" x2="0.5" y2="1" gradientUnits="objectBoundingBox">
      <stop offset="0" stop-color="#dc1b24"/>
      <stop offset="0.228" stop-color="#c1203b"/>
      <stop offset="0.748" stop-color="#8a2b6c"/>
      <stop offset="1" stop-color="#753080"/>
    </linearGradient>
    <linearGradient id="linear-gradient-4" x1="0.5" x2="0.5" y2="1" gradientUnits="objectBoundingBox">
      <stop offset="0" stop-color="#eb7165"/>
      <stop offset="0.003" stop-color="#eb7164"/>
      <stop offset="0.675" stop-color="#f9a85e"/>
      <stop offset="1" stop-color="#ffbe5c"/>
    </linearGradient>
  </defs>
  <g id="Group_717" data-name="Group 717" transform="translate(0)">
    <path id="Path_1091" data-name="Path 1091" d="M1212.26,607a7.434,7.434,0,0,1-7.432,7.434h-153.3a7.435,7.435,0,0,1-7.434-7.434V566.855a7.435,7.435,0,0,1,7.434-7.434h153.3a7.434,7.434,0,0,1,7.432,7.434Z" transform="translate(-1044.093 -559.421)" fill="#161615"/>
    <g id="PLAY" transform="translate(12.614 11.17)">
      <g id="Group_712" data-name="Group 712" clip-path="url(#clip-path)">
        <path id="Path_1092" data-name="Path 1092" d="M1082.458,591.632v37.252l18.785-18.626Z" transform="translate(-1082.458 -592.211)" fill="url(#linear-gradient)"/>
        <path id="Path_1093" data-name="Path 1093" d="M1106.288,604.979l-7.583-4.378-16.247-9.381v.135l18.785,18.626Z" transform="translate(-1082.458 -591.935)" fill="url(#linear-gradient-2)"/>
        <path id="Path_1094" data-name="Path 1094" d="M1082.458,666.91v.136l16.247-9.381,7.583-4.378-5.045-5Z" transform="translate(-1082.458 -630.237)" fill="url(#linear-gradient-3)"/>
        <path id="Path_1095" data-name="Path 1095" d="M1144.637,633.068l-5.045,5,5.045,5,8.666-5Z" transform="translate(-1120.807 -620.024)" fill="url(#linear-gradient-4)"/>
      </g>
    </g>
    <g id="Group_713" data-name="Group 713" transform="translate(125.835 20.92)">
      <path id="Path_1097" data-name="Path 1097" d="M1431.861,647.507a4.689,4.689,0,0,1-1.932-.39,3.646,3.646,0,0,1-1.469-1.2h-.118a14.546,14.546,0,0,1,.118,1.8v4.458h-1.64v-15.7h1.334l.227,1.483h.079a3.817,3.817,0,0,1,1.474-1.285,4.476,4.476,0,0,1,1.927-.4,4,4,0,0,1,3.326,1.473,7.844,7.844,0,0,1-.019,8.279A4.015,4.015,0,0,1,1431.861,647.507Zm-.237-9.835a2.906,2.906,0,0,0-2.4.919,4.733,4.733,0,0,0-.762,2.926v.365a5.42,5.42,0,0,0,.762,3.267,2.894,2.894,0,0,0,2.441.983,2.54,2.54,0,0,0,2.2-1.136,5.393,5.393,0,0,0,.8-3.134,5.191,5.191,0,0,0-.8-3.109A2.618,2.618,0,0,0,1431.623,637.672Z" transform="translate(-1426.82 -631.929)" fill="#f9f9f9"/>
      <path id="Path_1098" data-name="Path 1098" d="M1464.037,638.431H1462.4V623.05h1.641Z" transform="translate(-1450.699 -623.05)" fill="#f9f9f9"/>
      <path id="Path_1099" data-name="Path 1099" d="M1480.822,647.35l-.326-1.542h-.079a4.545,4.545,0,0,1-1.616,1.379,4.915,4.915,0,0,1-2.011.361,3.618,3.618,0,0,1-2.525-.83,3.026,3.026,0,0,1-.915-2.362q0-3.282,5.249-3.44l1.839-.059v-.672a2.743,2.743,0,0,0-.549-1.883,2.253,2.253,0,0,0-1.754-.608,7.149,7.149,0,0,0-3.064.83l-.5-1.255a7.707,7.707,0,0,1,1.755-.682,7.6,7.6,0,0,1,1.913-.247,4.127,4.127,0,0,1,2.871.86,3.591,3.591,0,0,1,.934,2.758v7.393Zm-3.707-1.156a3.333,3.333,0,0,0,2.407-.84A3.111,3.111,0,0,0,1480.4,643v-.978l-1.642.069a5.968,5.968,0,0,0-2.822.609,1.833,1.833,0,0,0-.865,1.675,1.687,1.687,0,0,0,.539,1.354A2.232,2.232,0,0,0,1477.116,646.194Z" transform="translate(-1458.051 -631.97)" fill="#f9f9f9"/>
      <path id="Path_1100" data-name="Path 1100" d="M1502.674,636.88h1.759l2.373,6.178a23.617,23.617,0,0,1,.969,3.055h.079q.128-.505.538-1.726t2.684-7.507h1.76l-4.656,12.336a6.16,6.16,0,0,1-1.617,2.6,3.437,3.437,0,0,1-2.268.765,6.619,6.619,0,0,1-1.483-.168v-1.315a5.7,5.7,0,0,0,1.216.119,2.507,2.507,0,0,0,2.412-1.9l.6-1.542Z" transform="translate(-1477.734 -632.333)" fill="#f9f9f9"/>
    </g>
    <g id="Group_715" data-name="Group 715" transform="translate(51.033 19.709)">
      <path id="Path_1101" data-name="Path 1101" d="M1332.447,638.276a3.691,3.691,0,0,1-.3,6.277,1.594,1.594,0,0,0-.635,1.112,1.243,1.243,0,0,0,.59.974l.816.633c1,.839,1.9,1.609,1.9,3.174,0,2.13-2.062,4.282-5.959,4.282-3.286,0-4.872-1.563-4.872-3.241a3.261,3.261,0,0,1,1.745-2.764,9.77,9.77,0,0,1,4.328-1.043,2.372,2.372,0,0,1-.68-1.539,2.044,2.044,0,0,1,.227-.885c-.25.023-.5.046-.726.046a3.583,3.583,0,0,1-3.761-3.557,4.076,4.076,0,0,1,1.45-3.036,6.179,6.179,0,0,1,4.057-1.247h4.667l-1.45.816Zm-1.609,10.062a3.513,3.513,0,0,0-.52-.024,9.052,9.052,0,0,0-2.38.364,2.545,2.545,0,0,0-1.949,2.333c0,1.608,1.564,2.765,3.989,2.765,2.174,0,3.331-1.045,3.331-2.448C1333.308,650.171,1332.56,649.562,1330.838,648.338Zm.658-4.306a2.292,2.292,0,0,0,.565-1.655c0-1.631-.974-4.169-2.854-4.169a2.117,2.117,0,0,0-1.587.748,2.617,2.617,0,0,0-.5,1.677c0,1.518.884,4.034,2.833,4.034A2.319,2.319,0,0,0,1331.5,644.031Z" transform="translate(-1283 -631.511)" fill="#f9f9f9"/>
      <path id="Path_1102" data-name="Path 1102" d="M1295.045,647.318a5.339,5.339,0,0,1-5.52-5.34,5.606,5.606,0,0,1,5.86-5.5,5.289,5.289,0,0,1,5.406,5.339A5.528,5.528,0,0,1,1295.045,647.318Zm2.828-1.832a4.092,4.092,0,0,0,.68-2.512c0-1.991-.95-5.792-3.756-5.792a3.152,3.152,0,0,0-2.036.771,3.423,3.423,0,0,0-1.042,2.761c0,2.238,1.109,5.924,3.847,5.924A2.89,2.89,0,0,0,1297.872,645.486Z" transform="translate(-1259.863 -630.854)" fill="#f9f9f9"/>
      <path id="Path_1103" data-name="Path 1103" d="M1257.748,647.318a5.339,5.339,0,0,1-5.52-5.34,5.606,5.606,0,0,1,5.86-5.5,5.289,5.289,0,0,1,5.406,5.339A5.528,5.528,0,0,1,1257.748,647.318Zm2.828-1.832a4.1,4.1,0,0,0,.679-2.512c0-1.991-.951-5.792-3.756-5.792a3.153,3.153,0,0,0-2.036.771,3.423,3.423,0,0,0-1.041,2.761c0,2.238,1.108,5.924,3.846,5.924A2.892,2.892,0,0,0,1260.576,645.486Z" transform="translate(-1234.829 -630.854)" fill="#f9f9f9"/>
      <path id="Path_1104" data-name="Path 1104" d="M1214.979,636.509l-3.253.751a24.1,24.1,0,0,1-3.752.385c-6.279,0-8.666-4.617-8.666-8.234,0-4.412,3.388-8.505,9.189-8.505a13.109,13.109,0,0,1,3.479.477,8.87,8.87,0,0,1,3,1.41l-1.888,1.8-.8.181.568-.91a6.5,6.5,0,0,0-4.867-2.137c-3.594,0-6.3,2.73-6.3,6.711a8.044,8.044,0,0,0,8.051,8.3,6.772,6.772,0,0,0,2.889-.569v-3.661l-3.434.181,1.819-.979h4.822l-.59.568a.532.532,0,0,0-.228.364c-.024.205-.045.865-.045,1.093Z" transform="translate(-1199.308 -620.399)" fill="#f9f9f9"/>
      <path id="Path_1105" data-name="Path 1105" d="M1361.7,634.82c-.751-.068-.908-.2-.908-1.092V620.854c0-.049.008-.1.012-.147.092-.8.319-.932,1.025-1.342h-3.254l-1.706.819h1.739v14.044c0,.454-.09.523-.614,1.2h4.026l.841-.5C1362.479,634.887,1362.091,634.865,1361.7,634.82Z" transform="translate(-1305.068 -619.365)" fill="#f9f9f9"/>
      <path id="Path_1106" data-name="Path 1106" d="M1382.886,646.532c-.247.136-.5.295-.744.407a5.261,5.261,0,0,1-2.193.429,4.827,4.827,0,0,1-3-.882,5.846,5.846,0,0,1-2.3-4.766,5.12,5.12,0,0,1,5.173-5.217,4.391,4.391,0,0,1,2.328.633,3.739,3.739,0,0,1,1.579,2.235l-5.307,2.147-1.74.135c.564,2.869,2.506,4.539,4.653,4.539a5.837,5.837,0,0,0,2.756-.789Zm-2.122-6.732c.428-.157.654-.293.654-.609a2.241,2.241,0,0,0-2.237-1.942c-.9,0-2.6.7-2.6,3.139,0,.384.045.791.069,1.2Z" transform="translate(-1316.995 -630.868)" fill="#f9f9f9"/>
      <g id="Group_714" data-name="Group 714" transform="translate(67.398 5.635)">
        <path id="Path_1107" data-name="Path 1107" d="M1404.972,636.658v1.49h-.181v-1.49h-.493V636.5h1.167v.155Z" transform="translate(-1404.298 -636.503)" fill="#f9f9f9"/>
        <path id="Path_1108" data-name="Path 1108" d="M1409.992,638.148v-1.5h-.008l-.459,1.5h-.141l-.463-1.5h-.006v1.5h-.164V636.5h.282l.419,1.33h.006l.413-1.33h.286v1.645Z" transform="translate(-1407.286 -636.503)" fill="#f9f9f9"/>
      </g>
    </g>
    <g id="Group_716" data-name="Group 716" transform="translate(51.071 11.082)">
      <path id="Path_1109" data-name="Path 1109" d="M1203.9,598.048h-1.13a7.517,7.517,0,0,0-.322-1.321h-1.632a6.834,6.834,0,0,0-.332,1.321h-1.063q0-.138.824-2.26a17.74,17.74,0,0,0,.825-2.338h1.335a19.539,19.539,0,0,0,.747,2.3A20.171,20.171,0,0,1,1203.9,598.048Zm-1.632-2a20,20,0,0,1-.6-1.971h-.057q0,.138-.625,1.971Z" transform="translate(-1199.426 -593.343)" fill="#fbfcfc"/>
      <path id="Path_1110" data-name="Path 1110" d="M1219.162,598.048h-.873a8.6,8.6,0,0,0-.971-1.529,8.423,8.423,0,0,1-1.158-2h-.057a12.416,12.416,0,0,1,.089,1.4q0,.872.049,2.126h-.869q.053-1.095.053-2.405,0-1.289-.053-2.193h1.049a6.635,6.635,0,0,0,.872,1.494,8.793,8.793,0,0,1,1.067,1.883h.053a13.426,13.426,0,0,1-.084-1.413q0-.957-.05-1.964h.883q-.05.876-.05,2.193T1219.162,598.048Z" transform="translate(-1210.129 -593.343)" fill="#fbfcfc"/>
      <path id="Path_1111" data-name="Path 1111" d="M1234.537,595.546a2.6,2.6,0,0,1-.643,1.752,2.245,2.245,0,0,1-1.8.749q-.523,0-1.441-.042.046-1.067.046-2.405,0-1.285-.046-2.193h.618c.1,0,.252,0,.452-.01s.331-.01.392-.01a2.38,2.38,0,0,1,1.849.635A2.2,2.2,0,0,1,1234.537,595.546Zm-.964.152a1.7,1.7,0,0,0-.4-1.143,1.5,1.5,0,0,0-1.208-.464,3.746,3.746,0,0,0-.417.032q.036.707.036,1.476,0,.844.035,1.674a2.341,2.341,0,0,0,.459.046,1.334,1.334,0,0,0,1.125-.472A1.82,1.82,0,0,0,1233.573,595.7Z" transform="translate(-1220.385 -593.3)" fill="#fbfcfc"/>
      <path id="Path_1112" data-name="Path 1112" d="M1249.226,598h-1.046a6.938,6.938,0,0,0-.629-1.544.824.824,0,0,0-.706-.293c-.137,0-.267,0-.392,0q0,.908.032,1.833h-.982q.046-1.067.046-2.405,0-1.285-.046-2.193h.611c.071,0,.218,0,.443-.01s.433-.01.624-.01q1.621,0,1.621,1.109a1.244,1.244,0,0,1-.926,1.225v.053a1.1,1.1,0,0,1,.626.556A12.32,12.32,0,0,1,1249.226,598Zm-1.324-3.249q0-.7-.9-.7a3.078,3.078,0,0,0-.587.05q.039.547.039,1.427.194.007.328.007Q1247.9,595.536,1247.9,594.755Z" transform="translate(-1230.354 -593.3)" fill="#fbfcfc"/>
      <path id="Path_1113" data-name="Path 1113" d="M1263.045,595.448a2.535,2.535,0,0,1-.664,1.8,2.154,2.154,0,0,1-1.642.714,2.075,2.075,0,0,1-1.561-.655,2.306,2.306,0,0,1-.629-1.665,2.535,2.535,0,0,1,.664-1.8,2.154,2.154,0,0,1,1.642-.713,2.079,2.079,0,0,1,1.561.653A2.306,2.306,0,0,1,1263.045,595.448Zm-.974.1a1.822,1.822,0,0,0-.378-1.2,1.163,1.163,0,0,0-.932-.459,1.077,1.077,0,0,0-.876.463,1.847,1.847,0,0,0-.36,1.169,1.819,1.819,0,0,0,.38,1.2,1.164,1.164,0,0,0,.931.461,1.077,1.077,0,0,0,.876-.465A1.849,1.849,0,0,0,1262.07,595.55Z" transform="translate(-1239.11 -593.127)" fill="#fbfcfc"/>
      <path id="Path_1114" data-name="Path 1114" d="M1276.256,598.048h-1q.046-1.095.046-2.405,0-1.289-.046-2.193h1q-.046.89-.046,2.193Q1276.211,596.974,1276.256,598.048Z" transform="translate(-1250.325 -593.343)" fill="#fbfcfc"/>
      <path id="Path_1115" data-name="Path 1115" d="M1285.936,595.546a2.6,2.6,0,0,1-.643,1.752,2.245,2.245,0,0,1-1.8.749q-.523,0-1.441-.042.046-1.067.046-2.405,0-1.285-.046-2.193h.618c.1,0,.252,0,.452-.01s.331-.01.392-.01a2.381,2.381,0,0,1,1.849.635A2.2,2.2,0,0,1,1285.936,595.546Zm-.964.152a1.7,1.7,0,0,0-.4-1.143,1.5,1.5,0,0,0-1.208-.464,3.738,3.738,0,0,0-.417.032q.035.707.035,1.476,0,.844.035,1.674a2.339,2.339,0,0,0,.459.046,1.335,1.335,0,0,0,1.125-.472A1.819,1.819,0,0,0,1284.972,595.7Z" transform="translate(-1254.885 -593.3)" fill="#fbfcfc"/>
      <path id="Path_1116" data-name="Path 1116" d="M1305.38,598.048h-1.13a7.455,7.455,0,0,0-.322-1.321H1302.3a6.816,6.816,0,0,0-.332,1.321H1300.9q0-.138.825-2.26a17.69,17.69,0,0,0,.824-2.338h1.335a19.5,19.5,0,0,0,.747,2.3A20.248,20.248,0,0,1,1305.38,598.048Zm-1.632-2a20.028,20.028,0,0,1-.6-1.971h-.056q0,.138-.625,1.971Z" transform="translate(-1267.538 -593.343)" fill="#fbfcfc"/>
      <path id="Path_1117" data-name="Path 1117" d="M1320.2,594.61a1.376,1.376,0,0,1-.627,1.247,2.785,2.785,0,0,1-1.538.4q-.166,0-.237-.007,0,.664.039,1.752h-.993q.046-1.021.046-2.405,0-1.271-.046-2.193h.615c.087,0,.254,0,.5-.01s.461-.01.643-.01a2.018,2.018,0,0,1,1.134.3A1.027,1.027,0,0,1,1320.2,594.61Zm-.911.194q0-.756-1-.756a2.828,2.828,0,0,0-.53.053q.039.667.039,1.512.088.007.2.007Q1319.292,595.621,1319.292,594.8Z" transform="translate(-1278.241 -593.3)" fill="#fbfcfc"/>
      <path id="Path_1118" data-name="Path 1118" d="M1333.087,594.61a1.377,1.377,0,0,1-.627,1.247,2.788,2.788,0,0,1-1.539.4q-.166,0-.236-.007,0,.664.039,1.752h-.993q.046-1.021.046-2.405,0-1.271-.046-2.193h.614c.087,0,.255,0,.5-.01s.461-.01.643-.01a2.018,2.018,0,0,1,1.134.3A1.026,1.026,0,0,1,1333.087,594.61Zm-.911.194q0-.756-1-.756a2.827,2.827,0,0,0-.53.053q.039.667.039,1.512.088.007.2.007Q1332.176,595.621,1332.176,594.8Z" transform="translate(-1286.889 -593.3)" fill="#fbfcfc"/>
      <path id="Path_1119" data-name="Path 1119" d="M1351.823,595.448a2.533,2.533,0,0,1-.664,1.8,2.152,2.152,0,0,1-1.642.714,2.075,2.075,0,0,1-1.561-.655,2.307,2.307,0,0,1-.629-1.665,2.537,2.537,0,0,1,.664-1.8,2.156,2.156,0,0,1,1.643-.713,2.079,2.079,0,0,1,1.561.653A2.307,2.307,0,0,1,1351.823,595.448Zm-.975.1a1.82,1.82,0,0,0-.378-1.2,1.163,1.163,0,0,0-.932-.459,1.078,1.078,0,0,0-.876.463,1.847,1.847,0,0,0-.36,1.169,1.819,1.819,0,0,0,.38,1.2,1.163,1.163,0,0,0,.93.461,1.076,1.076,0,0,0,.876-.465A1.846,1.846,0,0,0,1350.848,595.55Z" transform="translate(-1298.699 -593.127)" fill="#fbfcfc"/>
      <path id="Path_1120" data-name="Path 1120" d="M1367.826,598.048h-.872a8.6,8.6,0,0,0-.971-1.529,8.427,8.427,0,0,1-1.159-2h-.056a12.55,12.55,0,0,1,.088,1.4q0,.872.05,2.126h-.869q.053-1.095.053-2.405,0-1.289-.053-2.193h1.049a6.644,6.644,0,0,0,.873,1.494,8.805,8.805,0,0,1,1.066,1.883h.053a13.366,13.366,0,0,1-.085-1.413q0-.957-.049-1.964h.883q-.049.876-.049,2.193T1367.826,598.048Z" transform="translate(-1309.915 -593.343)" fill="#fbfcfc"/>
    </g>
  </g>
</svg>
