<svg id="Group_735" data-name="Group 735" xmlns="http://www.w3.org/2000/svg" width="91.712" height="30" viewBox="0 0 91.712 30">
  <path id="Path_1067" data-name="Path 1067" d="M1109.155,846.548a4.054,4.054,0,0,1-4.053,4.054h-83.6a4.055,4.055,0,0,1-4.054-4.054V824.656a4.054,4.054,0,0,1,4.054-4.054h83.6a4.054,4.054,0,0,1,4.053,4.054Z" transform="translate(-1017.443 -820.602)"/>
  <g id="Group_707" data-name="Group 707" transform="translate(6.152 4.664)">
    <path id="Path_1068" data-name="Path 1068" d="M1070.2,884.989a14.869,14.869,0,0,1-1.343,2.507c-.873,1.328-2.1,2.981-3.625,3-1.354.013-1.7-.881-3.538-.871s-2.22.886-3.574.874c-1.523-.014-2.688-1.507-3.56-2.835-2.439-3.713-2.694-8.07-1.19-10.387a5.4,5.4,0,0,1,4.341-2.61c1.615,0,2.629.885,3.964.885,1.295,0,2.084-.887,3.95-.887a5.269,5.269,0,0,1,3.971,2.1A4.544,4.544,0,0,0,1070.2,884.989Z" transform="translate(-1052.439 -869.823)" fill="#fff"/>
    <g id="Group_706" data-name="Group 706" transform="translate(8.538)">
      <path id="Path_1069" data-name="Path 1069" d="M1104.245,850.488a4.532,4.532,0,0,0,1.006-3.356,4.9,4.9,0,0,0-3.16,1.7,4.207,4.207,0,0,0-1.033,3.274A4.132,4.132,0,0,0,1104.245,850.488Z" transform="translate(-1101.01 -847.132)" fill="#fff"/>
    </g>
  </g>
  <g id="Group_710" data-name="Group 710" transform="translate(27.853 4.708)">
    <g id="Group_708" data-name="Group 708" transform="translate(0 7.187)">
      <path id="Path_1070" data-name="Path 1070" d="M1179.378,889.2l-3.494,10.284h1.6l1.043-3.158h3.383l1.073,3.158h1.644l-3.509-10.284Zm.829,1.691c.118.459.245.936.409,1.451l.941,2.727h-2.68l.928-2.745C1179.947,891.876,1180.082,891.4,1180.207,890.888Z" transform="translate(-1175.884 -889.033)" fill="#fff"/>
      <path id="Path_1071" data-name="Path 1071" d="M1232.775,904.363a2.911,2.911,0,0,0-2.474,1.187l-.062-1.023h-1.423l.008.131c.042.637.059,1.339.059,2.346v7.927h1.556v-3.7a2.732,2.732,0,0,0,2.127.914,3.208,3.208,0,0,0,2.358-1,4.251,4.251,0,0,0,1.041-2.993,4.14,4.14,0,0,0-.9-2.733A2.96,2.96,0,0,0,1232.775,904.363Zm-.388,1.288c1.387,0,2.008,1.285,2.008,2.558,0,1.642-.792,2.662-2.067,2.662a1.886,1.886,0,0,1-1.833-1.444,1.98,1.98,0,0,1-.055-.5v-1.251a2.315,2.315,0,0,1,.049-.384c.008-.043.016-.085.022-.126A1.97,1.97,0,0,1,1232.387,905.651Z" transform="translate(-1219.511 -901.533)" fill="#fff"/>
      <path id="Path_1072" data-name="Path 1072" d="M1278.357,904.363a2.913,2.913,0,0,0-2.474,1.187l-.062-1.023H1274.4l.008.131c.042.638.06,1.339.06,2.346v7.927h1.556v-3.7a2.731,2.731,0,0,0,2.126.914,3.211,3.211,0,0,0,2.359-1,4.255,4.255,0,0,0,1.041-2.993,4.139,4.139,0,0,0-.9-2.733A2.959,2.959,0,0,0,1278.357,904.363Zm-.387,1.288c1.386,0,2.007,1.285,2.007,2.558,0,1.642-.793,2.662-2.067,2.662a1.886,1.886,0,0,1-1.833-1.444,1.988,1.988,0,0,1-.055-.5v-1.251a2.3,2.3,0,0,1,.05-.385c.008-.042.015-.084.022-.125A1.969,1.969,0,0,1,1277.969,905.651Z" transform="translate(-1257.08 -901.533)" fill="#fff"/>
      <path id="Path_1073" data-name="Path 1073" d="M1336.651,892.786c-1.452-.562-1.917-1-1.917-1.822,0-.688.547-1.382,1.769-1.382a3.535,3.535,0,0,1,1.827.459l.132.081.439-1.3-.087-.051a4.509,4.509,0,0,0-2.266-.508c-1.984,0-3.37,1.171-3.37,2.848,0,1.352.868,2.3,2.731,2.975,1.321.494,1.812,1,1.812,1.866,0,.981-.758,1.59-1.978,1.59a4.258,4.258,0,0,1-2.243-.636l-.135-.087-.417,1.329.077.051a5.33,5.33,0,0,0,2.63.676c2.674,0,3.623-1.631,3.623-3.027C1339.276,894.41,1338.516,893.522,1336.651,892.786Z" transform="translate(-1305.337 -888.265)" fill="#fff"/>
      <path id="Path_1074" data-name="Path 1074" d="M1372.49,895.215l-1.526.479v1.293h-1.117v1.244h1.117v3.809a2.912,2.912,0,0,0,.538,1.974,2,2,0,0,0,1.506.591,3.668,3.668,0,0,0,1.2-.186l.087-.031-.075-1.246-.149.046a2.349,2.349,0,0,1-.724.083c-.6,0-.86-.381-.86-1.277V898.23h1.877v-1.244h-1.877Z" transform="translate(-1335.75 -893.993)" fill="#fff"/>
      <path id="Path_1075" data-name="Path 1075" d="M1400.161,904.363a3.664,3.664,0,0,0-3.7,3.951,3.55,3.55,0,0,0,3.578,3.831h.015a3.668,3.668,0,0,0,3.7-3.965,3.932,3.932,0,0,0-.992-2.752A3.463,3.463,0,0,0,1400.161,904.363Zm-.045,1.228c1.4,0,2.037,1.365,2.037,2.633,0,1.56-.87,2.692-2.067,2.692h-.015c-1.18,0-2.037-1.113-2.037-2.647C1398.035,906.937,1398.679,905.591,1400.116,905.591Z" transform="translate(-1357.688 -901.533)" fill="#fff"/>
      <path id="Path_1076" data-name="Path 1076" d="M1446.886,904.435l-.093-.024a1.5,1.5,0,0,0-.387-.049,2.219,2.219,0,0,0-1.951,1.253l-.046-1.089h-1.4l.009.131c.042.616.059,1.307.059,2.241l-.014,5.083h1.556v-3.966a4,4,0,0,1,.043-.6,1.72,1.72,0,0,1,1.637-1.568,3.972,3.972,0,0,1,.417.026l.167.017Z" transform="translate(-1396.054 -901.533)" fill="#fff"/>
      <path id="Path_1077" data-name="Path 1077" d="M1468.451,904.279c-2.071,0-3.518,1.655-3.518,4.025a3.479,3.479,0,0,0,3.667,3.757,5.967,5.967,0,0,0,2.464-.472l.094-.042-.3-1.16-.13.052a4.819,4.819,0,0,1-1.949.349,2.163,2.163,0,0,1-2.331-2.256l5.022.015.02-.1a3.464,3.464,0,0,0,.047-.65C1471.538,906.175,1470.729,904.279,1468.451,904.279Zm-.1,1.184a1.535,1.535,0,0,1,1.142.436,2.215,2.215,0,0,1,.536,1.448h-3.549A1.986,1.986,0,0,1,1468.347,905.463Z" transform="translate(-1414.12 -901.464)" fill="#fff"/>
    </g>
    <g id="Group_709" data-name="Group 709">
      <path id="Path_1078" data-name="Path 1078" d="M1175.884,848.759a11.349,11.349,0,0,1,1.492-.1,3.331,3.331,0,0,1,2.191.6,2.13,2.13,0,0,1,.77,1.755,2.464,2.464,0,0,1-.778,1.892,3.611,3.611,0,0,1-2.4.7,10.807,10.807,0,0,1-1.276-.058Zm.706,4.311a5.043,5.043,0,0,0,.706.029c1.492.007,2.3-.751,2.3-2.065.008-1.163-.714-1.878-2.19-1.878a4.428,4.428,0,0,0-.819.065Z" transform="translate(-1175.884 -848.434)" fill="#fff"/>
      <path id="Path_1079" data-name="Path 1079" d="M1206.728,859.87a1.754,1.754,0,0,1-1.862-1.8,1.8,1.8,0,0,1,1.926-1.856,1.741,1.741,0,0,1,1.87,1.791,1.81,1.81,0,0,1-1.926,1.863Zm.024-.477a1.244,1.244,0,0,0,1.18-1.365,1.188,1.188,0,1,0-1.188,1.365Z" transform="translate(-1199.771 -854.663)" fill="#fff"/>
      <path id="Path_1080" data-name="Path 1080" d="M1229.424,856.668l.521,1.77c.1.39.209.758.281,1.119h.024c.088-.354.217-.729.345-1.112l.634-1.777h.594l.6,1.748c.144.412.256.787.345,1.141h.024a9.7,9.7,0,0,1,.3-1.134l.553-1.755h.7l-1.252,3.5h-.642l-.594-1.668a11.479,11.479,0,0,1-.345-1.156h-.016a9.63,9.63,0,0,1-.353,1.163l-.626,1.661h-.642l-1.172-3.5Z" transform="translate(-1219.417 -855.036)" fill="#fff"/>
      <path id="Path_1081" data-name="Path 1081" d="M1264.662,857.241c0-.368-.008-.657-.032-.946h.626l.04.571h.016a1.471,1.471,0,0,1,1.284-.65,1.33,1.33,0,0,1,1.372,1.488v2.087h-.706v-2.015c0-.563-.233-1.04-.9-1.04a1.007,1.007,0,0,0-.947.65.854.854,0,0,0-.048.3v2.109h-.706Z" transform="translate(-1249.029 -854.663)" fill="#fff"/>
      <path id="Path_1082" data-name="Path 1082" d="M1290.148,847.384h.706v5.127h-.706Z" transform="translate(-1270.061 -847.384)" fill="#fff"/>
      <path id="Path_1083" data-name="Path 1083" d="M1301.094,859.87a1.755,1.755,0,0,1-1.861-1.8,1.8,1.8,0,0,1,1.926-1.856,1.74,1.74,0,0,1,1.869,1.791,1.81,1.81,0,0,1-1.926,1.863Zm.024-.477a1.244,1.244,0,0,0,1.18-1.365,1.188,1.188,0,1,0-1.188,1.365Z" transform="translate(-1277.549 -854.663)" fill="#fff"/>
      <path id="Path_1084" data-name="Path 1084" d="M1327.2,858.953a5.267,5.267,0,0,0,.056.838h-.634l-.064-.44h-.024a1.493,1.493,0,0,1-1.188.52,1.059,1.059,0,0,1-1.188-1c0-.845.834-1.307,2.335-1.3v-.072c0-.289-.088-.816-.882-.809a2.027,2.027,0,0,0-1.019.26l-.161-.426a2.736,2.736,0,0,1,1.284-.3,1.3,1.3,0,0,1,1.484,1.43Zm-.69-.946c-.771-.014-1.645.108-1.645.787a.59.59,0,0,0,.658.607.979.979,0,0,0,.955-.585.581.581,0,0,0,.032-.2Z" transform="translate(-1298.094 -854.663)" fill="#fff"/>
      <path id="Path_1085" data-name="Path 1085" d="M1349.933,847.384v4.225c0,.31.009.664.032.9h-.634l-.032-.606h-.016a1.454,1.454,0,0,1-1.316.686,1.667,1.667,0,0,1-1.669-1.777,1.743,1.743,0,0,1,1.741-1.878,1.336,1.336,0,0,1,1.172.527h.016v-2.08Zm-.706,3.055a1.052,1.052,0,0,0-.032-.274,1.02,1.02,0,0,0-1.019-.73,1.2,1.2,0,0,0-1.164,1.343,1.16,1.16,0,0,0,1.148,1.3,1.05,1.05,0,0,0,1.035-.758.985.985,0,0,0,.032-.274Z" transform="translate(-1316.34 -847.384)" fill="#fff"/>
      <path id="Path_1086" data-name="Path 1086" d="M1383.583,859.87a1.755,1.755,0,0,1-1.861-1.8,1.8,1.8,0,0,1,1.926-1.856,1.74,1.74,0,0,1,1.87,1.791,1.81,1.81,0,0,1-1.926,1.863Zm.024-.477a1.244,1.244,0,0,0,1.18-1.365,1.187,1.187,0,1,0-1.188,1.365Z" transform="translate(-1345.538 -854.663)" fill="#fff"/>
      <path id="Path_1087" data-name="Path 1087" d="M1408.232,857.241c0-.368-.008-.657-.032-.946h.626l.04.571h.016a1.471,1.471,0,0,1,1.284-.65,1.33,1.33,0,0,1,1.372,1.488v2.087h-.706v-2.015c0-.563-.232-1.04-.9-1.04a1.009,1.009,0,0,0-.947.65.863.863,0,0,0-.048.3v2.109h-.706Z" transform="translate(-1367.361 -854.663)" fill="#fff"/>
      <path id="Path_1088" data-name="Path 1088" d="M1442.178,851.9v.838h1.011v.484h-1.011v1.885c0,.433.137.679.53.679a1.464,1.464,0,0,0,.409-.043l.032.484a2.125,2.125,0,0,1-.626.087,1.07,1.07,0,0,1-.763-.267,1.27,1.27,0,0,1-.272-.917v-1.906h-.6v-.484h.6V852.1Z" transform="translate(-1394.301 -851.109)" fill="#fff"/>
      <path id="Path_1089" data-name="Path 1089" d="M1458.507,847.384h.706v2.181h.016a1.2,1.2,0,0,1,.506-.448,1.489,1.489,0,0,1,.722-.181,1.329,1.329,0,0,1,1.356,1.495v2.08h-.706V850.5c0-.571-.233-1.04-.9-1.04a1.015,1.015,0,0,0-.947.636.7.7,0,0,0-.048.3v2.109h-.706Z" transform="translate(-1408.824 -847.384)" fill="#fff"/>
      <path id="Path_1090" data-name="Path 1090" d="M1482.927,858.118a1.184,1.184,0,0,0,1.324,1.214,2.943,2.943,0,0,0,1.076-.174l.129.448a3.474,3.474,0,0,1-1.3.224,1.723,1.723,0,0,1-1.91-1.762,1.779,1.779,0,0,1,1.829-1.892,1.53,1.53,0,0,1,1.6,1.647,1.49,1.49,0,0,1-.024.3Zm2.063-.455a.938.938,0,0,0-.971-1.033,1.1,1.1,0,0,0-1.083,1.033Z" transform="translate(-1428.389 -854.63)" fill="#fff"/>
    </g>
  </g>
</svg>
